<svg width="548" height="534" viewBox="0 0 548 534" fill="none" xmlns="http://www.w3.org/2000/svg">
<path fill-rule="evenodd" clip-rule="evenodd" d="M274 0.333496C123.016 0.333496 0.582031 122.739 0.582031 273.751C0.582031 394.551 78.9245 497.039 187.562 533.193C201.226 535.724 206.243 527.261 206.243 520.039C206.243 513.525 205.989 491.982 205.872 469.135C129.808 485.675 113.757 436.875 113.757 436.875C101.319 405.277 83.3985 396.869 83.3985 396.869C58.5909 379.899 85.2685 380.248 85.2685 380.248C112.724 382.176 127.181 408.428 127.181 408.428C151.567 450.223 191.143 438.139 206.746 431.152C209.205 413.486 216.286 401.419 224.106 394.591C163.375 387.682 99.5352 364.234 99.5352 259.466C99.5352 229.62 110.216 205.23 127.707 186.082C124.868 179.19 115.509 151.382 130.36 113.722C130.36 113.722 153.32 106.376 205.564 141.752C227.375 135.694 250.764 132.655 274.001 132.547C297.236 132.65 320.645 135.693 342.495 141.752C394.681 106.376 417.61 113.722 417.61 113.722C432.493 151.382 423.134 179.19 420.295 186.082C437.827 205.23 448.429 229.62 448.429 259.466C448.429 364.486 384.467 387.605 323.583 394.374C333.391 402.859 342.128 419.498 342.128 445.007C342.128 481.591 341.817 511.035 341.817 520.039C341.817 527.32 346.733 535.846 360.593 533.161C469.176 496.967 547.418 394.514 547.418 273.752C547.418 122.738 425.004 0.333496 274.001 0.333496" fill="white"/>
<path d="M104.14 392.899C103.537 394.261 101.4 394.669 99.4539 393.732C97.4646 392.84 96.357 390.988 96.9987 389.625C97.5891 388.23 99.7247 387.841 101.709 388.774C103.692 389.666 104.823 391.536 104.14 392.899V392.899ZM115.216 405.252C113.912 406.461 111.358 405.899 109.633 403.99C107.84 402.084 107.509 399.53 108.832 398.308C110.177 397.099 112.649 397.665 114.437 399.571C116.23 401.5 116.579 404.031 115.216 405.252ZM125.995 420.998C124.321 422.166 121.577 421.075 119.882 418.644C118.208 416.208 118.208 413.292 119.921 412.124C121.615 410.956 124.318 412.008 126.034 414.419C127.705 416.891 127.705 419.807 125.995 420.998ZM140.763 436.213C139.265 437.865 136.073 437.422 133.736 435.167C131.346 432.962 130.681 429.833 132.179 428.18C133.7 426.524 136.91 426.989 139.264 429.226C141.638 431.427 142.357 434.578 140.763 436.213ZM161.139 445.046C160.471 447.189 157.404 448.157 154.306 447.247C151.212 446.31 149.19 443.807 149.814 441.642C150.458 439.482 153.546 438.472 156.665 439.446C159.753 440.379 161.782 442.869 161.139 445.047V445.046ZM183.515 446.683C183.592 448.938 180.966 450.808 177.716 450.848C174.447 450.925 171.799 449.096 171.762 446.877C171.762 444.6 174.334 442.753 177.597 442.693C180.848 442.629 183.515 444.446 183.515 446.683ZM204.337 443.141C204.726 445.336 202.467 447.596 199.239 448.198C196.065 448.782 193.126 447.419 192.723 445.242C192.329 442.987 194.625 440.728 197.799 440.144C201.032 439.583 203.925 440.905 204.337 443.141Z" fill="white"/>
</svg>
